<?xml version="1.0" encoding="UTF-8"?>
<svg width="1200px" height="380px" viewBox="0 0 1200 380" version="1.1"
  xmlns="http://www.w3.org/2000/svg"
  xmlns:xlink="http://www.w3.org/1999/xlink">
  <style>
    stop.first {
      stop-color: #FFD696;
    }
    stop.last {
      stop-color: #F1A939;
    }
    path.text {
      fill: #000;
    }
    @media (prefers-color-scheme: dark) {
      stop.first {
        stop-color: #5A9681;
      }  
      stop.last {
        stop-color: #054844;
      }
      path.text {
        fill: #F0F0F0;
      }
    }
  </style>

  <defs>
    <linearGradient x1="50%" y1="0%" x2="50%" y2="108.30643%" id="linearGradient-1">
      <stop offset="0%" class="first"></stop>
      <stop offset="100%" class="last"></stop>
    </linearGradient>
  </defs>
  <g id="TwoFiveSeven" stroke="none" stroke-width="1" fill="none" fill-rule="evenodd">
    <g id="twoFiveSeven">
      <ellipse id="Oval" fill="url(#linearGradient-1)" cx="600" cy="186" rx="600" ry="131"></ellipse>
      <path class="text" d="M182.305125,379.473998 C177.681828,379.634318 173.05858,379.794587 168.435332,379.954907 C162.314813,380.115227 157.153028,379.848061 152.950125,379.153358 C148.77346,378.458707 145.424241,335.095691 142.902469,249.064311 C140.354411,246.820036 138.5288,243.720739 137.425487,239.766521 C136.348462,235.785566 135.809974,188.695393 135.809974,98.4960527 L135.809974,98.4960527 C135.809974,91.1753719 135.809974,83.8680597 135.809974,76.574065 C129.873316,76.627488 123.936658,76.6675934 118,76.6942795 C118,72.365999 118,68.0377185 118,63.7094379 C120.206525,63.682701 122.426244,63.6693834 124.659056,63.6693834 C128.047706,63.6426465 130.72705,63.2819522 132.697191,62.5873006 C134.693568,61.865912 136.190889,60.7437746 137.189103,59.2208376 C138.187316,57.6979005 138.870284,55.7341601 139.238054,53.3295655 C139.605825,50.9249708 139.868497,48.0394166 140.026121,44.6730045 L140.026121,44.6730045 C144.018926,44.6195814 148.011731,44.55279 152.004536,44.47263 C152.004536,50.7780194 152.004536,57.0567227 152.004536,63.3086891 C162.117859,63.0415232 172.218089,62.734252 182.305125,62.3869261 C182.305125,66.7152067 182.305125,71.0434872 182.305125,75.3717677 C172.086703,75.7190935 161.868281,76.0263648 151.649908,76.2935306 C151.649908,83.5607884 151.649908,90.8280461 151.649908,98.095253 C151.649908,185.596096 151.91258,230.441944 152.437974,232.632846 C152.910794,234.850435 153.909008,236.54701 155.432566,237.72257 C156.929886,238.871444 159.044456,239.579464 161.776375,239.84663 C164.508295,240.08711 168.041374,240.140533 172.375662,240.00695 L172.375662,240.00695 C175.6855,239.900104 178.995288,239.779839 182.305125,239.646256 C182.305125,244.321862 182.305125,290.931127 182.305125,379.473947 L182.305125,379.473947 M266.350835,57.2570972 C271.683337,56.8028745 277.028933,56.3353342 282.387723,55.8544254 C278.8415,78.0569475 275.268991,184.059892 271.670194,373.86326 C263.106715,374.584649 254.516899,375.265932 245.900896,375.907161 C243.116453,189.550365 240.332009,87.0207798 237.547566,68.3183036 C236.496827,68.3984636 235.446089,68.465255 234.395351,68.518678 C231.742243,87.5952169 229.102279,190.498865 226.475409,377.229723 C217.780545,377.737369 209.08573,378.218278 200.390865,378.6725 C196.844643,189.350041 193.29837,83.8280051 189.752148,62.1064426 C195.137175,61.8659628 200.522201,61.6121654 205.907228,61.3449995 C207.430786,72.2993092 208.796771,82.3585419 210.005082,91.5227994 C211.213444,184.607694 212.342993,235.211231 213.393731,243.33346 L213.393731,243.33346 C214.365658,243.280037 215.363872,243.226614 216.388323,243.17314 C216.939954,239.218923 217.557253,234.837168 218.240271,230.027979 C218.923238,141.404998 219.619349,94.5553051 220.328603,89.4788991 C221.064095,84.375807 221.799637,79.3127695 222.535128,74.2898373 C223.244383,69.2935913 223.953637,64.6179849 224.662892,60.2629675 L224.662892,60.2629675 C232.307018,59.7820588 239.937951,59.2610446 247.55579,58.6999759 C248.317569,62.9480965 249.066205,67.5302253 249.801746,72.4463114 C250.511001,77.3623975 251.220255,82.3185382 251.92951,87.3147842 C252.638764,92.3110303 253.348019,139.067195 254.057273,227.58333 C254.740241,232.312359 255.35754,236.613954 255.909221,240.488011 L255.909221,240.488011 C256.881148,240.434588 257.866218,240.367797 258.864432,240.287637 C259.91517,232.005139 261.057863,181.241282 262.292462,87.9960674 C263.474536,78.6448548 264.827377,68.3985652 266.350935,57.2571988 L266.350935,57.2571988 L266.350935,57.2571988 M331.798604,370.416637 L331.798604,370.416637 C318.979598,371.779255 309.115853,328.028808 302.207218,239.165347 C295.298634,234.142415 291.844316,183.552196 291.844316,87.3947917 L291.844316,87.3947917 C291.844316,75.0778649 295.298634,65.7533383 302.207218,59.421212 C309.115803,53.0623488 318.979598,49.2016594 331.798604,47.8390422 L331.798604,47.8390422 C344.617609,46.3962651 354.455117,48.1062081 361.311177,52.9688712 C368.14095,57.8047974 371.555837,66.3811985 371.555837,78.6981253 L371.555837,78.6981253 C371.555837,174.85553 368.14095,226.193823 361.311177,232.713006 C354.455117,323.072667 344.617609,368.97386 331.798604,370.416637 L331.798604,370.416637 M331.798604,231.35044 L331.798604,231.35044 C340.624804,230.361886 346.837278,227.783603 350.436025,223.615642 C354.008535,219.394207 355.794765,171.71628 355.794765,80.5818074 L355.794765,80.5818074 C355.794765,73.2878636 354.008535,67.9843463 350.436025,64.6713571 C346.837228,61.3316311 340.624754,60.1560707 331.798604,61.1446251 L331.798604,61.1446251 C322.972403,62.1064426 316.733692,64.644671 313.082371,68.7592087 C309.457337,72.8737463 307.64482,78.5780125 307.64482,85.8719563 L307.64482,85.8719563 C307.64482,177.006428 309.457337,224.283607 313.082371,227.703493 C316.733692,231.096643 322.972453,232.312308 331.798604,231.350491 L331.798604,231.350491 M380.381988,57.7781113 C380.381988,53.5834137 380.381988,49.3887162 380.381988,45.1940186 C385.872113,44.499367 391.362239,43.8047153 396.852314,43.1100129 C397.298897,37.7397549 398.375872,33.2110492 400.083341,29.5239973 C401.817046,25.8903684 404.246862,22.8712821 407.37284,20.4666366 C410.525054,18.062042 414.37338,16.1784106 418.917816,14.8157935 C423.488539,13.4264902 428.873566,12.3176704 435.072896,11.4894359 L435.072896,11.4894359 C437.174373,11.22227 439.288993,10.9417356 441.416706,10.6478328 C441.416706,15.0830102 441.416706,19.5181367 441.416706,23.9533141 C438.238204,24.3807998 435.059753,24.8082856 431.881251,25.2357713 C427.888446,25.7701031 424.644326,26.478174 422.148792,27.3598316 C419.679545,28.294963 417.709454,29.4304689 416.238421,30.7663491 C414.767388,32.1022294 413.729793,33.6251664 413.125637,35.3351094 C412.600293,37.0717894 412.337571,38.9954752 412.337571,41.1061671 L412.337571,41.1061671 C421.951788,39.8237098 431.566055,38.5412526 441.180271,37.2587953 C441.180271,41.4534929 441.180271,45.6481904 441.180271,49.842888 C431.51348,51.1253453 421.859833,52.4078025 412.219329,53.6902598 C412.219329,155.16455 412.219329,256.665526 412.219329,358.193239 C407.018162,358.861204 401.817046,359.529119 396.61588,360.197085 C396.61588,258.669372 396.61588,157.168396 396.61588,55.6941056 C391.204566,56.3887572 385.793302,57.0834088 380.381988,57.7781113 L380.381988,57.7781113 M450.715726,19.6250844 L450.715726,19.6250844 C450.715726,16.6594211 451.556317,14.294881 453.237498,12.531515 C454.866155,10.821572 457.230303,9.75285759 460.329993,9.32537184 L460.329993,9.32537184 C463.429683,8.8978861 465.820069,9.32537184 467.50125,10.6078291 C469.156144,11.8902863 469.98359,14.0143466 469.98359,16.98001 L469.98359,16.98001 C469.98359,19.9189872 469.156144,22.2567904 467.50125,23.9934194 C465.820069,25.6766255 463.429633,26.7319714 460.329993,27.1594572 L460.329993,27.1594572 C457.230303,27.5869429 454.866155,27.1728256 453.237498,25.9170545 C451.556317,24.6613342 450.715726,22.56396 450.715726,19.6250336 L450.715726,19.6250336 M452.607055,352.782876 C452.607055,163.273411 452.607055,57.577686 452.607055,35.6958037 C457.781934,35.0011521 462.983101,34.293132 468.210504,33.5717434 C468.210504,55.4536258 468.210504,161.149299 468.210504,350.658815 C462.983101,351.380204 457.781934,352.088224 452.607055,352.782876 L452.607055,352.782876 M541.578165,23.7529905 C547.383487,23.0049158 553.22819,22.2567904 559.112324,21.5087157 C550.496271,44.4860493 541.919649,151.277174 533.382407,341.882091 C524.214723,343.111125 515.073326,344.326791 505.958166,345.529088 C497.342114,157.195183 488.739204,52.6750701 480.149438,31.9687989 C486.007285,31.1672505 491.878275,30.3657528 497.762409,29.5642043 C501.334919,38.5414051 504.723518,47.5052373 507.928307,56.4557012 C511.133046,149.19327 514.403453,199.77007 517.739577,208.186202 L517.739577,208.186202 C519.052988,207.999196 520.379541,207.825508 521.719239,207.665188 C525.029077,198.340661 528.28634,146.895522 531.491079,53.329718 C534.722105,43.5242826 538.084467,33.6654243 541.578165,23.7530921 L541.578165,23.7530921 L541.578165,23.7530921 M604.819359,13.1727436 L604.819359,13.1727436 C618.137421,11.7032804 628.027504,13.8006038 634.489556,19.4647645 C640.977845,25.1289253 644.156347,34.7473547 644.025011,48.3200018 L644.025011,48.3200018 C622.98401,50.5375905 601.956154,52.8620252 580.94144,55.2933567 C581.177875,145.813337 583.3844,192.262231 587.561066,194.640139 C591.737731,197.018048 597.687533,197.752754 605.410471,196.84436 L605.410471,196.84436 C611.084457,196.229868 615.825897,195.094362 619.634792,193.437842 C623.469974,191.808059 626.162512,189.136298 627.712307,185.42251 L627.712307,185.42251 C632.860899,184.888178 638.009541,184.367164 643.158133,183.859518 C641.739624,190.966456 637.746819,196.724145 631.179718,201.132585 C624.58633,289.40824 615.838941,334.16061 604.937551,335.389594 L604.937551,335.389594 C598.869557,336.084245 593.418862,336.097614 588.585467,335.429648 C583.725834,334.78842 579.562262,291.331875 576.094851,205.060066 C572.653677,202.682158 569.987426,199.342432 568.096098,195.040888 C566.231056,190.739345 565.29851,143.435429 565.29851,53.1291911 L565.29851,53.1291911 C565.29851,41.3199099 568.765921,32.0621748 575.700793,25.3560366 C582.609378,18.7033214 592.31555,14.6422068 604.819309,13.1726928 L604.819309,13.1726928 M581.177775,45.0738041 C596.807462,43.2302782 612.463435,41.4535437 628.145696,39.7436007 C627.331393,33.6519542 624.954101,29.4706251 621.01382,27.1995626 C617.047302,24.9552878 611.649132,24.2071623 604.819359,24.9552878 L604.819359,24.9552878 C597.56929,25.8102593 591.974116,27.8141051 588.033835,30.9667744 C584.119842,34.1194945 581.834505,38.8218377 581.177775,45.0738041 L581.177775,45.0738041 L581.177775,45.0738041 M691.741517,327.093727 L691.741517,327.093727 C680.840127,327.975435 672.276599,285.026537 666.051031,198.247031 C659.825414,195.334791 655.583081,189.790845 653.323981,181.615192 L653.323981,181.615192 C658.761532,181.107547 664.212227,180.61327 669.676066,180.132361 C671.015763,183.872836 673.511247,186.397696 677.162569,187.706839 C680.866415,188.962559 685.726047,189.34999 691.741517,188.869082 L691.741517,188.869082 C697.704462,188.414859 702.445903,187.252667 705.965838,185.382404 C709.512061,183.512141 711.285197,181.014018 711.285197,177.888035 L711.285197,177.888035 C711.285197,176.151355 710.983094,174.788789 710.378938,173.800234 C709.774783,172.81168 708.750282,172.090291 707.305535,171.636069 C705.860789,87.3413687 703.956317,45.1806501 701.592168,45.1539132 C699.22802,45.1004902 696.325334,45.2073362 692.88421,45.4745021 L692.88421,45.4745021 C691.334365,45.6080851 689.771427,45.7282995 688.195294,45.8351964 C683.545809,46.2092591 679.342857,46.2626821 675.586437,45.9955163 C671.777492,45.7817734 668.546516,45.0336987 665.893408,43.7512415 C663.292825,42.5222073 661.257017,40.7187867 659.785983,38.3408781 C658.367474,35.9897065 657.65822,32.8770918 657.65822,29.0029831 L657.65822,29.0029831 C657.65822,25.9571599 658.393711,23.0449196 659.864745,20.2662622 C661.362066,17.5143417 663.516066,15.0429048 666.326797,12.852053 C669.085004,10.6878874 672.512984,8.87109834 676.610887,7.40163514 C680.682504,5.95885803 685.318846,5.03709506 690.520012,4.63634623 L690.520012,4.63634623 C695.222072,4.26228349 699.595741,4.27565195 703.64107,4.67640078 C707.6864,5.07714961 711.272053,6.05238642 714.39798,7.60200956 C717.576482,9.09820968 720.308351,11.195533 722.593738,13.8940305 C724.82655,16.5925279 726.507732,20.0391508 727.637281,24.2338484 L727.637281,24.2338484 C722.409878,24.5544373 717.195568,24.8884455 711.994451,25.2357713 C710.470893,21.2548166 707.909691,18.6765337 704.310944,17.5009733 C700.712147,16.3788359 696.115186,16.0315101 690.520012,16.4589958 L690.520012,16.4589958 C688.024528,16.6460018 685.660379,17.006696 683.427517,17.5410786 C681.194705,18.1288843 679.277089,18.8502728 677.674719,19.7052443 C676.07235,20.5869527 674.785177,21.6422987 673.81325,22.8712821 C672.841324,24.1003163 672.35536,25.5430426 672.35536,27.1995626 L672.35536,27.1995626 C672.35536,30.4858656 673.918349,32.4629745 677.044276,33.1309401 C680.170204,33.7721687 685.410751,33.7989056 692.765918,33.2111 L692.765918,33.2111 C694.210664,33.104254 695.642317,32.9973571 697.060826,32.8905111 C706.753854,32.1958594 714.095878,33.1710454 719.086896,35.8161199 C724.051628,38.4344574 726.533969,85.3776791 726.533969,176.645734 L726.533969,176.645734 C726.533969,180.493106 725.653997,183.886255 723.894005,186.825232 C722.134012,189.790896 719.691052,192.27565 716.565125,194.279496 C713.439198,280.150556 709.748495,323.660523 705.492968,324.809398 C701.263778,325.958272 696.679911,326.719715 691.741467,327.093778 L691.741467,327.093778 M777.954471,0.0275313752 L777.954471,0.0275313752 C791.430156,-0.319794443 801.438431,2.61918279 807.979245,8.84441225 C814.572633,15.0963786 817.790516,24.9953423 817.632892,38.5412526 L817.632892,38.5412526 C796.355457,38.9153153 775.091215,39.4897525 753.840067,40.264564 C754.102739,130.784544 756.335552,177.407126 760.538504,180.132361 C764.741457,182.804121 770.756927,184.006469 778.584914,183.739253 L778.584914,183.739253 C784.285137,183.578933 789.079152,182.844227 792.966858,181.535032 C796.828327,180.225838 799.560246,177.794558 801.162615,174.241089 L801.162615,174.241089 C806.363782,174.134243 811.564898,174.054083 816.766065,174.000609 C815.321318,181.000701 811.262845,186.411013 804.590646,190.231699 C797.97102,277.946285 789.131676,321.950529 778.072663,322.244432 L778.072663,322.244432 C771.978382,322.431438 766.475162,322.003952 761.562955,320.961975 C756.677035,319.946684 752.487226,276.169551 748.993528,189.630525 C745.49983,187.012187 742.807342,183.485404 740.916013,179.050278 C739.024684,174.615101 738.079045,127.244444 738.079045,36.9382064 L738.079045,36.9382064 C738.079045,25.1289253 741.559599,16.1250385 748.520758,9.92649509 C755.560679,3.78137473 765.37195,0.481754046 777.954521,0.0275313752 L777.954521,0.0275313752 M754.076452,30.0450622 C769.863762,29.4305197 785.677359,28.9362425 801.517193,28.5621797 C800.702889,22.3903733 798.312454,18.0086189 794.345936,15.4170184 C790.353131,12.8253669 784.889293,11.6230696 777.954471,11.8101264 L777.954471,11.8101264 C770.651828,12.0506062 765.004129,13.6002293 761.011324,16.4590466 C757.044806,19.3178639 754.733182,23.8465189 754.076452,30.0450622 L754.076452,30.0450622 L754.076452,30.0450622 M887.257327,2.87298022 C893.220272,3.05998617 899.183167,3.27372905 905.146113,3.51420884 C896.398724,25.0487654 887.651335,130.437219 878.903946,319.679518 C869.578638,319.465775 860.266524,319.292087 850.967504,319.158504 C842.193878,129.595565 833.420202,23.873205 824.646576,1.9912718 C830.609521,1.9912718 836.58556,2.00464026 842.574793,2.03132635 C846.226114,11.5161728 849.680381,20.9609138 852.937695,30.3655495 C856.221245,123.55729 859.55732,174.61505 862.945969,183.538777 L862.945969,183.538777 C864.311904,183.565514 865.664745,183.5922 867.004442,183.618937 C870.393092,174.828793 873.716023,123.891248 876.973286,30.8064037 C880.283124,21.5353001 883.711154,12.224142 887.257377,2.87292939 L887.257377,2.87292939 L887.257377,2.87292939 M951.917029,3.19361995 L951.917029,3.19361995 C965.497814,4.15543747 975.624281,8.06960069 982.296431,14.9361096 C988.942343,21.8025677 992.17337,31.9954342 991.989459,45.5146583 L991.989459,45.5146583 C970.449352,43.8581383 948.948675,42.3753067 927.48738,41.0661633 C927.723814,131.61283 929.96972,178.449206 934.225247,181.575189 C938.507012,184.701172 944.601293,186.504643 952.508041,186.985552 L952.508041,186.985552 C958.313364,187.386301 963.159903,187.105767 967.047609,186.143949 C970.961602,185.208818 973.732902,183.044703 975.361559,179.651503 L975.361559,179.651503 C980.61525,180.052252 985.882034,180.479737 991.162012,180.93396 C989.717266,187.773732 985.619362,192.796664 978.868401,196.002807 C972.117439,283.049479 963.173046,326.185383 952.035222,325.410572 L952.035222,325.410572 C945.835892,325.036509 940.253861,324.08806 935.289129,322.565123 C930.324398,321.042186 926.068921,276.850935 922.522698,189.991321 C919.002713,186.998921 916.283937,183.204972 914.366371,178.609525 C912.448755,173.960605 911.489972,126.49642 911.489972,36.2169195 L911.489972,36.2169195 C911.489972,24.4076384 915.036195,15.7377089 922.12869,10.2071311 C929.194898,4.7567132 939.124361,2.41891004 951.917079,3.19372161 L951.917079,3.19372161 M927.723814,30.8465599 C943.721272,31.8083774 959.718729,32.8637742 975.716186,34.0125976 C974.92812,27.7606313 972.511447,23.1518164 968.466118,20.1861022 C964.420788,17.193702 958.904426,15.4570729 951.917029,14.9761133 L951.917029,14.9761133 C944.483051,14.5218907 938.75654,15.5238136 934.737498,17.981882 C930.718456,20.4398997 928.380545,24.7281256 927.723814,30.8465091 L927.723814,30.8465091 L927.723814,30.8465091 M1050.02954,12.0105008 L1050.02954,12.0105008 C1060.2742,13.1326382 1068.01028,16.3521498 1073.23768,21.6689847 C1078.41256,26.9858197 1081,34.9343606 1081,45.5146583 L1081,45.5146583 C1081,142.019439 1081,238.550906 1081,335.109059 C1075.61497,334.494568 1070.25623,333.880025 1064.92373,333.265533 C1064.92373,237.455455 1064.92373,141.672063 1064.92373,45.9154072 C1064.92373,39.0222122 1063.32136,33.9725431 1060.11662,30.7664 C1056.91188,27.5869938 1051.84205,25.636571 1044.90723,24.9151824 L1044.90723,24.9151824 C1037.6834,24.1671078 1032.35095,25.1289253 1028.90977,27.8006858 C1025.49489,30.4457602 1023.78742,34.9744152 1023.78742,41.3867014 L1023.78742,41.3867014 C1023.78742,137.223517 1023.78742,233.087018 1023.78742,328.977307 C1018.40239,328.469662 1013.04365,327.962016 1007.71115,327.45437 C1007.71115,137.971591 1007.71115,32.2892862 1007.71115,10.4074038 C1012.49202,10.8348896 1017.27284,11.2757438 1022.05371,11.7299156 C1022.13253,14.561996 1022.21134,17.3807588 1022.29015,20.1861022 C1025.41608,16.5257365 1029.30383,14.0677188 1033.95332,12.8119985 C1038.6028,11.6364381 1043.96159,11.3692214 1050.02959,12.01045 L1050.02959,12.01045" id="text" fill-rule="nonzero"></path>
    </g>
  </g>
</svg>